<?xml version="1.0" standalone="no"?>
<!DOCTYPE svg PUBLIC "-//W3C//DTD SVG 1.1//EN" "http://www.w3.org/Graphics/SVG/1.1/DTD/svg11.dtd" >
<!--
2013-9-30: Created.
-->
<svg>
<metadata>
Created by iconfont
</metadata>
<defs>

<font id="iconfont" horiz-adv-x="1024" >
  <font-face
    font-family="iconfont"
    font-weight="500"
    font-stretch="normal"
    units-per-em="1024"
    ascent="896"
    descent="-128"
  />
    <missing-glyph />
    
    <glyph glyph-name="jiage" unicode="&#58881;" d="M815.5 687.4C734.5 768.3 626.8 812.9 512 812.9c-114.8 0-222.5-44.6-303.4-125.5C127.7 606.5 83.1 498.7 83.1 384c0-114.8 44.6-222.5 125.5-303.4 80.9-80.9 188.7-125.5 303.4-125.5 114.7 0 222.5 44.6 303.4 125.5C982.7 247.9 982.7 520.1 815.5 687.4zM776 120c-70.4-70.4-164.1-109.2-264-109.2-99.9 0-193.6 38.8-264 109.2-145.6 145.6-145.6 382.5 0 528 70.4 70.4 164.1 109.2 264 109.2 99.8 0 193.6-38.8 264-109.2 70.4-70.4 109.2-164.1 109.2-264S846.4 190.4 776 120zM667.7 389.1l0.4 0.1c9 2.9 15 11.2 15 20.6 0 11.9-9.6 21.5-21.5 21.5L531.7 431.3l0 39.8 133.5 132.2 0.2 0.4c0.9 1.8 1.8 5.1 2 8.5 0.4 5.7-1.5 11.3-5.4 15.8-3.6 4-9.6 6.4-16.2 6.4-5.7 0-11-1.8-14.5-5l-120.7-119L382.9 635.7l-0.1 0.1c-2.9 2.5-7.7 4-13.2 4-7 0-13.4-2.4-16.7-6.2-6.3-7.1-7.2-17.7-2.2-25.7l2.1-3.4 135.6-132.4 0-40.9-135.7-1-0.4 0-0.4-0.1c-9-2.9-15-11.2-15-20.5 0-9.4 6-17.6 15-20.5l3.5-1.1 132.8 0 0-66.8-135.7-1-0.4 0-0.3-0.1c-9-2.8-15-11.1-15-20.5 0-9.4 6-17.7 15-20.6l3.4-1.1 132.9 0 0.1-132.8 1.1-2.2c2.9-8.8 11.1-14.8 20.4-14.8 9.4 0 17.6 6 20.5 15l1.1 3.5L531.3 277.9l136 1 0.4 0.1c9 2.9 15 11.2 15 20.6 0 11.9-9.6 21.5-21.5 21.5L531.7 321.1 531.7 388 667.7 389.1z"  horiz-adv-x="1024" />

    
    <glyph glyph-name="jiaru" unicode="&#58923;" d="M511.157307-146.61585c-246.952438 0-447.179692 200.215998-447.179692 447.190949 0 246.971881 200.227254 447.178669 447.179692 447.178669 246.973928 0 447.179692-200.206788 447.179692-447.178669C958.337 53.600147 758.130212-146.61585 511.157307-146.61585zM511.157307 707.100882c-224.523613 0-406.52783-182.01445-406.52783-406.525784 0-224.52566 182.004217-406.539086 406.52783-406.539086 224.523613 0 406.52783 182.013427 406.52783 406.539086C917.684114 525.086431 735.68092 707.100882 511.157307 707.100882zM531.483238 76.983717l-40.652885 0L490.830353 280.248144 287.567973 280.248144l0 40.652885 203.26238 0L490.830353 524.163409l40.652885 0 0-203.26238L734.747665 320.901029l0-40.652885L531.483238 280.248144 531.483238 76.983717z"  horiz-adv-x="1024" />

    
    <glyph glyph-name="fanhui" unicode="&#58904;" d="M682.424996-15.667585c-8.490372 0-17.041118 2.841721-24.091698 8.685823L199.142038 373.414921c-8.662287 7.185656-13.682627 17.853623-13.682627 29.112038s5.02034 21.926382 13.682627 29.111015L658.333298 812.058193c16.068977 13.325493 39.902802 11.06194 53.228295-4.995781 13.313214-16.081257 11.073196-39.901779-4.995781-53.228295L282.502607 402.526959 706.565812 51.243337c16.068977-13.326517 18.308995-37.147038 4.995781-53.228295C704.080202-11.004379 693.301717-15.667585 682.424996-15.667585z"  horiz-adv-x="1024" />

    
    <glyph glyph-name="boda" unicode="&#58887;" d="M460.003 332.052c-67 66.958-131.039 144.53-100.332 175.195 43.862 43.906 82.1 70.934 4.359 167.712-77.744 96.776-129.601 22.46-172.153-20.092-49.024-49.068-2.58-231.962 178.2-412.78 180.781-180.739 363.717-227.265 412.78-178.161 42.552 42.512 116.826 94.325 20.096 172.109-96.734 77.788-123.806 39.549-167.713-4.354-30.707-30.582-108.24 33.413-175.237 100.371v0 0z"  horiz-adv-x="1024" />

    
    <glyph glyph-name="arrow-right-copy-copy" unicode="&#58883;" d="M347.687 751.812l-52.761-52.238 313.928-316.082-316.568-313.42 52.314-52.673 369.322 365.663z"  horiz-adv-x="1024" />

    
    <glyph glyph-name="tishi1" unicode="&#59179;" d="M512-62.016611c-245.919634 0-446.016611 200.064292-446.016611 446.016611 0 245.919634 200.095256 446.016611 446.016611 446.016611 245.952318 0 446.016611-200.064292 446.016611-446.016611S757.952318-62.016611 512-62.016611zM512 766.016611c-210.655557 0-382.016611-171.359333-382.016611-382.016611 0-210.624593 171.359333-382.016611 382.016611-382.016611 210.624593 0 382.016611 171.359333 382.016611 382.016611S722.624593 766.016611 512 766.016611zM463.99957 591.99957c0-26.509985 21.490445-48.00043 48.00043-48.00043s48.00043 21.490445 48.00043 48.00043-21.490445 48.00043-48.00043 48.00043S463.99957 618.509555 463.99957 591.99957zM512 128c-17.664722 0-32.00086 14.303454-32.00086 32.00086L479.99914 448c0 17.664722 14.336138 32.00086 32.00086 32.00086s32.00086-14.336138 32.00086-32.00086l0-287.99914C544.00086 142.303454 529.664722 128 512 128z"  horiz-adv-x="1024" />

    
    <glyph glyph-name="caiwurenminbizhifu2" unicode="&#59344;" d="M480 832C215.04 832 0 616.96 0 352 0 87.04 215.04-128 480-128c264.96 0 480 215.04 480 480C960 616.96 744.96 832 480 832zM672 384C689.92 384 704 369.92 704 352 704 334.08 689.92 320 672 320L512 320l0-128 160 0c17.92 0 32-14.08 32-32 0-17.92-14.08-32-32-32L512 128l0-96C512 14.08 497.92 0 480 0 462.08 0 448 14.08 448 32L448 128 288 128C270.08 128 256 142.08 256 160 256 177.92 270.08 192 288 192L448 192 448 320 288 320C270.08 320 256 334.08 256 352 256 369.92 270.08 384 288 384L448 384 448 405.12 264.96 588.16c-12.16 12.16-12.16 31.36 0 42.88 12.16 12.16 31.36 12.16 42.88 0l171.52-171.52 173.44 173.44c12.16 12.16 32 12.16 44.16 0 12.16-12.16 12.16-32 0-44.16L512 403.84 512 384 672 384z"  horiz-adv-x="1024" />

    
    <glyph glyph-name="jiantou-copy-copy-copy" unicode="&#58985;" d="M96.196 224.193l415.804 415.632 415.803-415.632-63.616-63.445-352.209 352.017-352.102-352.017z"  horiz-adv-x="1024" />

    
    <glyph glyph-name="hangban" unicode="&#58915;" d="M751.395322 519.375224c-17.083074-0.423649-31.104415-3.228531-48.695049-11.556197-59.57484-31.528064-112.941282-55.494918-116.255771-56.939827-1.02126-0.509606-2.207271-0.762363-3.399423-0.679475-72.574922 9.008164-145.148821 18.35709-217.723743 27.108405-11.133571 1.788739-20.054755-5.945409-26.345018-10.875698-7.137561-5.183046-14.021342-10.875698-20.98801-16.232706-10.962679-7.818059-4.418636-17.677615 2.037403-20.307512l115.576295-58.300824c7.817036-4.673439 3.058662-11.386328 0-13.5936l-61.525262-29.150924c-1.701758-0.679475-3.656273-0.679475-5.439896 0-25.241894 11.897981-58.296731 20.312628-79.118965 27.789926-12.066827 4.331655-24.560372 0.509606-31.784914-7.477298-3.651157-4.078899-6.03239-9.179057-6.7968-14.95869-0.593518-4.76042 1.443885-11.30344 5.439896-14.95562l69.599148-64.416102c7.987928-7.30743 18.358113-6.461155 26.345018-6.120394 17.419741 0.76748 27.959795 1.360997 44.956911 2.723018 8.838296 0.762363 18.779715 3.3984 28.04166 8.156774 128.406508 67.558675 368.480282 200.64067 368.480282 200.64067 18.526959 11.473309 21.75549 26.939559 13.515828 36.628222C798.047852 508.158764 777.570471 519.463228 751.395322 519.375224L751.395322 519.375224 751.395322 519.375224 751.395322 519.375224 751.395322 519.375224zM751.395322 519.375224M512.002047 819.106726c-240.331647 0-435.108772-194.777125-435.108772-435.108772 0-240.326531 194.777125-435.103656 435.108772-435.103656 240.326531 0 435.103656 194.777125 435.103656 435.103656C947.106726 624.329601 752.328577 819.106726 512.002047 819.106726L512.002047 819.106726zM512.002047-31.732469c-229.621724 0-415.735539 186.108698-415.735539 415.730423 0 229.621724 186.113815 415.735539 415.735539 415.735539 229.620701 0 415.730423-186.113815 415.730423-415.735539C927.732469 154.376229 741.623771-31.732469 512.002047-31.732469L512.002047-31.732469zM512.002047-31.732469"  horiz-adv-x="1024" />

    
    <glyph glyph-name="mine" unicode="&#59025;" d="M511.999488 829.138196c-245.880013 0-445.138196-199.284789-445.138196-445.138196 0-245.852384 199.258183-445.137173 445.138196-445.137173s445.138196 199.284789 445.138196 445.137173C957.137685 629.8534070000001 757.879502 829.138196 511.999488 829.138196zM511.999488-5.494898000000035c-214.799134 0-389.495922 174.723394-389.495922 389.494898 0 214.771505 174.696788 389.495922 389.495922 389.495922 214.798111 0 389.495922-174.724417 389.495922-389.495922C901.49541 169.22849499999995 726.797599-5.494898000000035 511.999488-5.494898000000035zM596.92981 412.7723c49.556673 29.28907 83.191724 82.675978 83.191724 144.267754 0 92.727914-75.420737 168.17628-168.122045 168.17628-92.755544 0-168.17628-75.448366-168.17628-168.17628 0-61.591777 33.689287-114.979708 83.191724-144.267754-105.144712-35.700083-181.543729-134.297682-181.543729-251.368004 0-15.377222 12.389168-27.821649 27.821649-27.821649 15.32401 0 27.821649 12.443403 27.821649 27.821649 0 116.2834 94.548376 210.886011 210.886011 210.886011s210.886011-94.603635 210.886011-210.886011c0-15.377222 12.498662-27.821649 27.821649-27.821649 15.432481 0 27.821649 12.443403 27.821649 27.821649C778.527774 278.47461799999996 702.128757 377.072217 596.92981 412.7723zM511.999488 444.532655c-62.000076 0-112.534006 50.480718-112.534006 112.5074 0 62.054311 50.53393 112.534006 112.534006 112.534006s112.479771-50.480718 112.479771-112.534006C624.479259 495.013373 573.999564 444.532655 511.999488 444.532655z"  horiz-adv-x="1024" />

    
    <glyph glyph-name="gengduo" unicode="&#59027;" d="M511.971859 829.138196c-245.826801 0-445.11159-199.284789-445.11159-445.138196s199.284789-445.138196 445.11159-445.138196c245.880013 0 445.164802 199.284789 445.164802 445.138196S757.852896 829.138196 511.971859 829.138196zM511.971859-5.396661c-214.68964 0-389.370055 174.679391-389.370055 389.396661s174.680415 389.396661 389.370055 389.396661c214.744899 0 389.42429-174.679391 389.42429-389.396661S726.716758-5.396661 511.971859-5.396661zM707.065186 411.869744 539.842627 411.869744 539.842627 579.093327c0 15.404852-12.410658 27.869744-27.869744 27.869744-15.350616 0-27.870768-12.465916-27.870768-27.869744l0-167.223582L316.879556 411.869744c-15.350616 0-27.870768-12.464893-27.870768-27.869744 0-15.404852 12.520151-27.869744 27.870768-27.869744l167.222559 0 0-167.223582c0-15.404852 12.520151-27.869744 27.870768-27.869744 15.459087 0 27.869744 12.465916 27.869744 27.869744L539.842627 356.130256l167.222559 0c15.459087 0 27.870768 12.465916 27.870768 27.869744C734.935953 399.405875 722.524273 411.869744 707.065186 411.869744z"  horiz-adv-x="1024" />

    
    <glyph glyph-name="guanbi" unicode="&#58905;" d="M1417.766474 807.213873l-55.195376 55.195376L935.80578 435.791908 515.847399 855.750289l-55.195376-55.195376 419.958382-419.958381-416.110983-416.110983 55.195376-55.195376 416.110982 416.110983 422.769943-422.769942 55.195375 55.195376-422.769942 422.769942z"  horiz-adv-x="1879" />

    
    <glyph glyph-name="49shurushanchu-2" unicode="&#58940;" d="M925.32 556.91c-69.822 162.753-228.69 274.68-413.7 274.68-247.91 0-448.88-200.97-448.88-448.88 0-247.91 200.97-448.88 448.88-448.88 247.91 0 448.88 200.97 448.88 448.88 0 0.173 0 0.377 0 0.582 0 62.701-12.939 122.38-36.291 176.512zM552.6 381.76l140 140c5.068 5.067 8.202 12.068 8.202 19.8 0 7.732-3.134 14.733-8.202 19.8-5.067 5.068-12.068 8.202-19.8 8.202-7.732 0-14.733-3.134-19.8-8.202l-140-140-140 140c-5.067 5.068-12.068 8.202-19.8 8.202s-14.733-3.134-19.8-8.202c-5.068-5.067-8.202-12.068-8.202-19.8 0-7.732 3.134-14.733 8.202-19.8l140-140-140-140c-5.068-5.067-8.202-12.068-8.202-19.8s3.134-14.733 8.202-19.8c5.067-5.068 12.068-8.202 19.8-8.202 7.732 0 14.733 3.134 19.8 8.202l140 140 140-140c5.067-5.067 12.068-8.201 19.8-8.201 15.465 0 28.001 12.537 28.001 28.001 0 7.732-3.134 14.733-8.201 19.8z"  horiz-adv-x="1024" />

    
    <glyph glyph-name="shijian" unicode="&#58975;" d="M511.98464 829.44c-118.97856 0-230.83008-46.35136-314.95168-130.4832C112.90624 614.84032 66.56 502.95808 66.56 384.00512c0-118.9632 46.34624-230.84544 130.47296-314.9568C281.15456-15.09376 393.00608-61.44 511.98464-61.44c118.98368 0 230.84032 46.34624 314.9824 130.48832C911.09376 153.15968 957.44 265.02144 957.44 384.00512c0 118.97856-46.34624 230.8352-130.47296 314.95168C742.82496 783.08864 630.96832 829.44 511.98464 829.44z m275.58912-721.02912c-73.61024-73.63584-171.47904-114.18624-275.58912-114.18624s-201.97376 40.5504-275.57888 114.18624c-73.63584 73.61024-114.16064 171.47904-114.16064 275.59424 0 104.11008 40.54528 201.97376 114.18112 275.58912 73.60512 73.63072 171.47392 114.176 275.584 114.176s201.97376-40.54528 275.584-114.176c73.63584-73.61536 114.18112-171.47904 114.18112-275.58912 0-104.1152-40.56576-201.984-114.2016-275.59424zM519.1168 340.20864V628.08064a27.8528 27.8528 0 0 1-27.84256 27.84768 27.8528 27.8528 0 0 1-27.84256-27.84768v-306.23232a27.81184 27.81184 0 0 1 16.88064-25.58976M734.70464 321.84832a31.0784 31.0784 0 0 0-31.07328-31.0784H496.44544a31.08864 31.08864 0 0 0-31.07328 31.0784 31.09376 31.09376 0 0 0 31.07328 31.0784h207.18592a31.08864 31.08864 0 0 0 31.07328-31.0784z"  horiz-adv-x="1024" />

    
    <glyph glyph-name="delete" unicode="&#58900;" d="M512 896a512 512 0 1 1 512-512 512 512 0 0 1-512 512z m203.52-640A55.68 55.68 0 1 0 640 180.48l-128 128-128-128A55.68 55.68 0 1 0 308.48 256l128 128-128 128A55.68 55.68 0 1 0 384 587.52l128-128 128 128A55.68 55.68 0 1 0 715.52 512l-128-128z"  horiz-adv-x="1024" />

    
    <glyph glyph-name="gengduo1" unicode="&#58941;" d="M890.175 385.524c-3.608-209.441-169.818-375.647-379.258-379.254-209.452-3.608-375.736 175.244-379.25 379.254-3.607 209.452 175.24 375.74 379.25 379.254 209.456 3.608 375.744-175.24 379.258-379.254 0.683-39.616 62.184-39.681 61.5 0C947.747 613.633 779.11 796.777 553.72 824.072 327.607 851.453 119.133 682.869 77.33 464.342 34.671 241.363 177.98 25.085 391.534-38.87c218.948-65.57 446.011 61.138 530.682 266.08 20.6 49.863 28.536 104.69 29.459 158.315 0.683 39.68-60.818 39.614-61.5-0.001zM506.967 220.672L650.08 363.78c11.847 11.847 11.847 31.641 0 43.488l-143.112 143.11c-28.067 28.067-71.554-15.42-43.487-43.487L606.59 363.78v43.487L463.48 264.16c-28.067-28.068 15.42-71.555 43.487-43.488z"  horiz-adv-x="1024" />

    
    <glyph glyph-name="search" unicode="&#58916;" d="M1005.888-97.728c23.36 23.232-0.832 44.096-0.832 44.096l-175.68 175.232c59.392 78.528 105.28 186.368 105.28 292.672 0 256.704-206.656 464.768-462.016 464.768-254.976 0-461.632-208.064-461.632-464.704 0-256.576 206.656-464.704 461.632-464.832 109.312 0 233.664 61.504 312.64 124.992l175.168-174.72c0.064 0 17.152-25.792 45.44 2.496zM190.72 130.496c-72.256 72.518-116.929 172.561-116.929 283.038 0 0.327 0 0.654 0.001 0.981-0.001 0.192-0.001 0.48-0.001 0.767 0 110.452 44.674 210.469 116.939 282.969 71.619 72.626 171.115 117.622 281.12 117.622 0.3 0 0.6-0 0.9-0.001 106.769 0 206.609-41.728 282.001-117.568 72.364-72.382 117.122-172.368 117.122-282.807 0-0.386-0.001-0.771-0.002-1.157 0.002-0.352 0.003-0.84 0.003-1.328 0-110.348-44.762-210.241-117.119-282.512-71.364-72.48-170.546-117.384-280.215-117.384-0.646 0-1.291 0.002-1.936 0.005-0.459-0.003-1.119-0.005-1.78-0.005-109.636 0-208.784 44.906-280.053 117.329z"  horiz-adv-x="1024" />

    
    <glyph glyph-name="ico_zaixiankefu" unicode="&#58909;" d="M413.44-27.9296C82.9184-25.472 0 21.9136 0 153.8304V358.144A76.9536 76.9536 0 0 0 76.7488 435.2h51.3024A76.928 76.928 0 0 0 204.8 358.1696v-204.3392H153.6V358.144C153.6 372.4288 142.08 384 128.0512 384H76.7488C62.72 384 51.2 372.4288 51.2 358.1696v-204.3392c0-49.3312 7.808-68.5056 43.6224-87.4496 50.432-26.6752 150.4-41.5488 317.44-43.0848A102.4512 102.4512 0 0 0 614.4 0a102.4 102.4 0 0 0-200.96-27.9296zM947.2 435.2h-51.2c0 212.0704-171.9296 384-384 384C299.9296 819.2 128 647.2704 128 435.2H76.8C76.8 675.5584 271.6416 870.4 512 870.4s435.2-194.8416 435.2-435.2z m-128-77.0304A76.9536 76.9536 0 0 0 895.9488 435.2h51.3024A76.928 76.928 0 0 0 1024 358.1696v-204.3392A76.9536 76.9536 0 0 0 947.2512 76.8h-51.3024A76.928 76.928 0 0 0 819.2 153.8304V358.144z m51.2 0v-204.3392c0-14.2592 11.52-25.8304 25.5488-25.8304h51.3024c14.0288 0 25.5488 11.5712 25.5488 25.8304V358.144c0 14.2592-11.52 25.8304-25.5488 25.8304h-51.3024c-14.0288 0-25.5488-11.5712-25.5488-25.8304zM512-51.2a51.2 51.2 0 1 1 0 102.4 51.2 51.2 0 0 1 0-102.4z"  horiz-adv-x="1024" />

    
    <glyph glyph-name="hangbanyanwu" unicode="&#59596;" d="M413.547 529.643l-53.76 58.069c-30.933 33.387-61.931 66.752-92.8 100.181-13.525 14.656-9.493 32.597 8.96 40.192 27.947 11.52 55.979 22.827 83.883 34.432 9.728 4.053 18.347 2.965 26.965-2.987 71.403-49.621 142.933-99.072 214.336-148.693 3.264-2.261 5.803-2.389 9.344-0.939 50.261 20.693 100.48 41.472 150.891 61.824 52.864 21.333 111.659-6.229 128-59.669 14.293-46.677-9.408-95.723-55.616-114.688-83.563-34.283-167.168-68.459-250.773-102.656-84.053-34.411-168.107-68.757-252.096-103.296-11.733-4.8-21.525-3.157-30.699 5.547-53.376 50.624-106.901 101.12-160.341 151.68-13.717 12.971-10.965 31.381 5.973 39.979 26.027 13.227 52.181 26.261 78.229 39.531 9.173 4.672 17.835 4.352 26.667-0.917 20.331-12.053 40.747-23.957 61.227-35.733 1.835-1.067 4.821-1.579 6.635-0.853 30.933 12.459 61.76 25.173 92.587 37.803 0.597 0.256 1.131 0.576 2.389 1.195zM200.384 456.683c40-37.845 80.043-75.648 119.936-113.579 2.816-2.667 4.843-3.008 8.469-1.515 161.813 66.347 323.691 132.565 485.547 198.891 4.053 1.664 8.107 3.691 11.669 6.208 11.989 8.557 19.713 22.422 19.713 38.090 0 8.408-2.224 16.297-6.116 23.109-11.698 20.891-37.192 29.638-60.402 20.166-54.293-22.101-108.587-44.203-162.731-66.731-11.691-4.864-21.397-3.947-31.808 3.328-70.635 49.28-141.525 98.197-212.267 147.328-3.051 2.133-5.461 2.581-8.96 1.067-11.605-4.992-23.36-9.664-35.051-14.464-1.451-0.597-2.859-1.28-4.693-2.069l4.715-5.205 141.568-152.747c13.867-14.933 9.856-33.024-9.131-40.811-45.291-18.56-90.624-37.013-135.872-55.68-3.272-1.517-7.103-2.402-11.14-2.402-5.463 0-10.547 1.62-14.798 4.407-475.622 287.243-1030.697 501.978-1622.665 611.56 1561.626-575.89 1558.981-574.973 1557.573-575.656-12.587-6.016-24.96-12.373-38.016-18.987l4.459-4.331zM389.675 279.317c1.47 10.476 10.373 18.449 21.137 18.449 11.782 0 21.333-9.551 21.333-21.333 0-0.938-0.061-1.863-0.178-2.769-1.034-7.42-1.631-16.117-1.631-24.954 0-106.039 85.961-192 192-192 105.977 0 191.899 85.861 192 191.814 0 0.094 0 0.195 0 0.295 0 55.217-23.387 104.972-60.796 139.9-4.279 4.006-6.875 9.543-6.875 15.687 0 11.783 9.552 21.335 21.335 21.335 5.639 0 10.768-2.188 14.582-5.762 45.854-42.828 74.442-103.663 74.442-171.176 0-0.095-0-0.189-0-0.284 0-129.585-105.067-234.652-234.667-234.652-129.621 0-234.667 105.067-234.667 234.667 0 10.347 0.64 20.629 1.984 30.784zM640 341.333v-85.333h85.333c11.782 0 21.333-9.551 21.333-21.333s-9.551-21.333-21.333-21.333h-106.667c-0-0-0-0-0-0-11.782 0-21.333 9.551-21.333 21.333 0 0 0 0 0 0l0 106.667c0 11.782 9.551 21.333 21.333 21.333s21.333-9.551 21.333-21.333z"  horiz-adv-x="1024" />

    
    <glyph glyph-name="hangbandongtai" unicode="&#59611;" d="M912.746667 224.810667A429.269333 429.269333 0 0 0 514.453333-42.666667C277.482667-42.666667 85.333333 148.352 85.333333 384S277.461333 810.666667 514.474667 810.666667c83.072 0 160.64-23.466667 226.346666-64.128l-0.085333-0.128c5.76-4.416 9.493333-11.349333 9.493333-19.157334 0-13.333333-10.88-24.149333-24.32-24.149333-7.04 0-13.354667 2.986667-17.792 7.722667a381.354667 381.354667 0 0 1-193.642666 52.437333c-210.688 0-381.44-169.813333-381.44-379.264 0-209.450667 170.752-379.264 381.44-379.264 161.365333 0 299.349333 99.626667 355.072 240.426667 2.773333 10.325333 12.224 17.941333 23.488 17.941333 13.44 0 24.298667-10.816 24.298666-24.149333 0-5.290667-1.706667-10.176-4.586666-14.144z m-438.762667 159.082666c-18.837333 14.506667-37.290667 28.672-55.744 42.837334-32.064 24.618667-64.149333 49.216-96.170667 73.877333-14.037333 10.816-13.312 27.221333 1.557334 36.736 22.506667 14.378667 45.12 28.629333 67.562666 43.114667 7.829333 5.056 15.509333 5.44 23.893334 1.493333 69.76-32.661333 139.605333-65.194667 209.365333-97.898667 3.2-1.493333 5.418667-1.216 8.277333 0.618667 40.490667 25.898667 80.917333 51.882667 121.578667 77.504 42.624 26.858667 98.026667 11.605333 120.512-32.853333 19.648-38.890667 6.656-85.653333-30.570667-109.418667-67.306667-42.944-134.698667-85.824-202.026666-128.725333-67.733333-43.136-135.466667-86.229333-203.136-129.472-9.429333-6.016-18.218667-6.08-27.541334 0.170666-54.250667 36.352-108.586667 72.533333-162.901333 108.821334-13.930667 9.322667-14.4 25.92-1.024 36.074666 20.608 15.616 41.301333 31.104 61.888 46.762667 7.253333 5.504 14.826667 6.549333 23.338667 3.285333 19.541333-7.488 39.125333-14.826667 58.773333-22.058666 1.706667-0.64 4.416-0.64 5.888 0.277333 24.938667 15.701333 49.770667 31.594667 74.602667 47.445333 0.469333 0.298667 0.896 0.661333 1.877333 1.408z m-178.496-93.717333c1.92-1.322667 3.2-2.261333 4.522667-3.136 40.64-27.136 81.322667-54.250667 121.877333-81.493333 2.858667-1.92 4.693333-1.92 7.594667-0.042667 130.368 83.157333 260.8 166.208 391.189333 249.344 3.285333 2.090667 6.485333 4.48 9.194667 7.253333a41.984 41.984 0 0 1 2.474666 55.722667c-13.568 16.768-37.056 20.544-55.765333 8.661333-43.776-27.754667-87.552-55.530667-131.093333-83.626666-9.429333-6.08-18.005333-6.741333-28.181334-1.962667-69.034667 32.512-138.24 64.682667-207.36 97.066667-2.986667 1.386667-5.141333 1.429333-7.936-0.426667-9.322667-6.186667-18.816-12.096-28.245333-18.112-1.152-0.746667-2.282667-1.557333-3.733333-2.56l4.906666-3.84 146.730667-112.64c14.357333-11.029333 13.696-27.52-1.621333-37.290667-36.48-23.253333-73.024-46.442667-109.44-69.76-7.36-4.736-14.677333-5.418667-22.784-2.282666-18.986667 7.338667-38.037333 14.421333-57.109334 21.482666-1.557333 0.576-4.032 0.96-5.12 0.149334-10.005333-7.210667-19.776-14.72-30.101333-22.506667z"  horiz-adv-x="1024" />

    
    <glyph glyph-name="fuzhi" unicode="&#58934;" d="M639.9 639.7H192.4c-35.2 0-63.9-28.8-63.9-63.9v-575.4c0-35.2 28.8-63.9 63.9-63.9h447.5c35.2 0 63.9 28.8 63.9 63.9V575.8c0 35.1-28.8 63.9-63.9 63.9z m0-639.3H192.4V575.8h447.5v-575.4zM831.6 831.5H384.1c-35.2 0-63.9-28.8-63.9-63.9v-63.9h63.9v63.9h447.5v-575.4h-63.9v-63.9h63.9c35.2 0 63.9 28.8 63.9 63.9V767.6c0.1 35.1-28.7 63.9-63.9 63.9z"  horiz-adv-x="1024" />

    
    <glyph glyph-name="shenfenxinxi" unicode="&#58929;" d="M865 704.2H159.5c-52.6 0-95.3-41.9-95.3-93.4v-453.2c0-51.5 42.8-93.4 95.3-93.4H865c52.6 0 95.3 41.9 95.3 93.4V610.9c0.1 51.4-42.7 93.3-95.3 93.3z m51.5-546.6c0-27.8-23.1-50.4-51.5-50.4H159.5c-28.4 0-51.5 22.6-51.5 50.4V610.9c0 27.8 23.1 50.4 51.5 50.4H865c28.4 0 51.5-22.6 51.5-50.4v-453.3zM526.1 279.8c-9.9 23.5-24.1 44.6-42.2 62.6-18.1 18.1-39.2 32.3-62.6 42.2-2 0.9-4.1 1.7-6.1 2.5 2 1.7 3.8 3.5 5.7 5.3 20.3 20.3 31.5 47.3 31.5 76 0 28.7-11.2 55.7-31.5 76-20.3 20.3-47.3 31.5-76 31.5-28.7 0-55.7-11.2-76-31.5-20.3-20.3-31.5-47.3-31.5-76 0-28.7 11.2-55.7 31.5-76 1.8-1.8 3.6-3.5 5.5-5.1-2.2-0.8-4.3-1.7-6.5-2.6-23.5-9.9-44.6-24.1-62.6-42.2-18.1-18.1-32.3-39.2-42.2-62.6-9-21.2-14.1-43.6-15.2-66.6-0.3-5.4 1.7-10.7 5.4-14.6 3.7-3.9 8.9-6.1 14.2-6.1 10.5 0 19.1 8.2 19.6 18.7 4.3 83.9 73.5 149.7 157.6 149.7S498 295.2 502.3 211.3c0.5-10.5 9.1-18.7 19.6-18.7 5.3 0 10.5 2.2 14.2 6.1 3.7 3.9 5.7 9.2 5.4 14.6-1.3 22.9-6.4 45.3-15.4 66.5zM344.7 412.4c-28.4 0-51.5 23.1-51.5 51.5s23.1 51.5 51.5 51.5 51.5-23.1 51.5-51.5-23.1-51.5-51.5-51.5zM823.5 494.4H624.1c-10.3 0-18.6 8.4-18.6 18.6 0 10.3 8.4 18.6 18.6 18.6h199.4c10.3 0 18.6-8.4 18.6-18.6 0-10.2-8.3-18.6-18.6-18.6zM823.5 230.3H624.1c-10.3 0-18.6 8.4-18.6 18.6 0 10.3 8.4 18.6 18.6 18.6h199.4c10.3 0 18.6-8.4 18.6-18.6 0-10.2-8.3-18.6-18.6-18.6zM823.5 318.4H624.1c-10.3 0-18.6 8.4-18.6 18.6 0 10.3 8.4 18.6 18.6 18.6h199.4c10.3 0 18.6-8.4 18.6-18.6 0-10.3-8.3-18.6-18.6-18.6zM823.5 406.4H624.1c-10.3 0-18.6 8.4-18.6 18.6 0 10.3 8.4 18.6 18.6 18.6h199.4c10.3 0 18.6-8.4 18.6-18.6 0-10.2-8.3-18.6-18.6-18.6z"  horiz-adv-x="1024" />

    
    <glyph glyph-name="quanju_tousu" unicode="&#58888;" d="M513.152-70.528h-2.304a31.872 31.872 0 0 0-17.536 5.248c-270.976 102.4-360.128 291.072-363.84 299.2-35.2 133.248-38.912 467.008-39.104 481.216l-0.256 19.52 17.344 9.088c401.024 210.304 792.576 8.64 809.088 0l17.28-9.152-0.192-19.52c-0.128-14.144-3.968-347.968-37.12-475.968-5.632-13.312-94.848-202.048-365.824-304.448a33.088 33.088 0 0 0-17.536-5.184zM189.44 255.36c0.576 0 82.88-167.232 322.496-259.264 242.112 92.992 323.648 262.784 324.48 264.576 25.152 98.56 31.552 359.616 32.896 434.688-76.736 34.496-395.2 157.696-714.688 0.64 1.344-74.368 7.872-337.216 34.816-440.64zM512 288.768a48 48 0 0 0-48 48V647.36a48 48 0 0 0 96 0v-310.592a48 48 0 0 0-48-48zM513.216 121.28a48 48 0 0 0-48 48v28.032a48 48 0 0 0 96 0v-28.032a48 48 0 0 0-48-48z"  horiz-adv-x="1024" />

    
    <glyph glyph-name="zhongguoguojihangkong_CA" unicode="&#58886;" d="M134.4 147.2c25.6-192 300.8-166.4 300.8 0V428.8c25.6 172.8 115.2 268.8 281.6 275.2 140.8-12.8 204.8 57.6 249.6 179.2-140.8-96-211.2-32-345.6-70.4C518.4 774.4 352 697.6 320 448v-268.8c-6.4-32-64-32-76.8 0V448c0 51.2-12.8 76.8-44.8 83.2 19.2 57.6 128-44.8 134.4 96-64-76.8-153.6 6.4-160-96H57.6c76.8-19.2 83.2-38.4 83.2-115.2l-6.4-268.8zM179.2 19.2c102.4-76.8 275.2-32 288 128V428.8c12.8 134.4 89.6 211.2 230.4 236.8 70.4 6.4 140.8-6.4 198.4 57.6-19.2-76.8-64-128-147.2-140.8-108.8-6.4-160-64-179.2-160v-300.8c0-198.4-281.6-288-390.4-102.4zM384-108.8c147.2-19.2 294.4 44.8 300.8 262.4V320c0 44.8 19.2 64 51.2 51.2 19.2-12.8 25.6-32 19.2-51.2-6.4-12.8-32-6.4-38.4 12.8-6.4-96 115.2-115.2 140.8-32 12.8 64-6.4 115.2-70.4 160-89.6 38.4-192-12.8-192-96v-281.6c-25.6-140.8-108.8-179.2-211.2-192z"  horiz-adv-x="1024" />

    
    <glyph glyph-name="weibiaoti-" unicode="&#58898;" d="M456.145455 34.909091c-9.309091 0-18.618182 2.327273-25.6 6.981818-11.636364 6.981818-25.6 20.945455-27.927273 53.527273v4.654545l37.236363 132.654546-165.236363-81.454546c-6.981818-4.654545-32.581818-20.945455-60.509091-16.290909-11.636364 2.327273-30.254545 9.309091-41.890909 32.581818L18.618182 349.090909c-4.654545 4.654545-25.6 37.236364-11.636364 67.490909 9.309091 20.945455 30.254545 32.581818 65.163637 37.236364h4.654545l179.2-65.163637 2.327273-2.327272c2.327273-2.327273 20.945455-11.636364 46.545454 16.290909l2.327273 2.327273L663.272727 663.272727c16.290909 16.290909 114.036364 111.709091 286.254546 48.872728 13.963636-4.654545 67.490909-18.618182 74.472727-58.181819 4.654545-23.272727-9.309091-46.545455-39.563636-69.818181l-200.145455-144.29091-204.8-328.145454s-27.927273-51.2-86.109091-65.163636c-6.981818-4.654545-20.945455-11.636364-37.236363-11.636364z m-6.981819 60.509091c0-6.981818 2.327273-11.636364 4.654546-11.636364 4.654545-2.327273 16.290909 0 20.945454 4.654546l4.654546 2.327272c39.563636 9.309091 60.509091 44.218182 60.509091 44.218182l211.781818 337.454546 207.127273 148.945454c18.618182 13.963636 20.945455 20.945455 20.945454 23.272727-2.327273 6.981818-23.272727 18.618182-41.890909 23.272728h-2.327273C781.963636 723.781818 698.181818 630.690909 698.181818 630.690909l-4.654545-4.654545-358.4-253.672728c-41.890909-41.890909-86.109091-32.581818-104.727273-20.945454l-162.909091 58.181818c-16.290909-2.327273-20.945455-6.981818-23.272727-9.309091-2.327273-4.654545 2.327273-16.290909 6.981818-20.945454l158.254545-186.181819c4.654545-9.309091 11.636364-11.636364 11.636364-11.636363 9.309091-2.327273 23.272727 4.654545 25.6 9.309091l4.654546 2.327272L512 316.509091l-62.836364-221.090909z"  horiz-adv-x="1024" />

    
    <glyph glyph-name="ly_hangban" unicode="&#58880;" d="M928.627 401.403c-16.118 25.79-38.235 46.304-65.731 60.968-32.939 17.567-73.412 26.474-120.3 26.474h-62.441L431.333 737.423a29.137 29.137 0 0 1-20.595 8.525h-110.62a29.141 29.141 0 0 1-25.29-43.62l122.229-213.483H282.974l-66.42 166.047a29.142 29.142 0 0 1-27.057 18.319h-73.751a29.137 29.137 0 0 1-29.141-29.143l0.006-331.858c0-56.732 46.155-102.887 102.888-102.887h110.624c16.093 0 29.14 13.047 29.14 29.141s-13.047 29.141-29.14 29.141H189.499c-24.596 0-44.605 20.01-44.605 44.605l-0.006 302.718h24.881l66.42-166.047a29.142 29.142 0 0 1 27.057-18.319H442.25a29.11 29.11 0 0 1 10.757 0h209.254c2.166-0.5 4.377-0.757 6.588-0.757 2.211 0 4.422 0.257 6.588 0.757h67.16c64.64 0 110.184-19.55 135.367-58.108 18.83-28.83 19.82-58.935 19.857-60.39-0.078-24.53-20.059-44.459-44.605-44.459h-110.62c-16.094 0-29.141-13.047-29.141-29.141s13.047-29.141 29.141-29.141h110.619c56.732 0 102.887 46.155 102.887 102.887 0 4.63-0.772 46.466-27.476 89.193zM350.382 687.6659999999999h48.293l199.016-198.82H464.216l-113.834 198.82zM668.85 340.88599999999997H447.61a29.141 29.141 0 0 1-25.284-14.652L274.833 68.82000000000005a29.141 29.141 0 0 1 25.284-43.63h110.62c7.715 0 15.115 3.06 20.578 8.507L689.427 291.11a29.14 29.14 0 0 1 6.352 31.768 29.138 29.138 0 0 1-26.929 18.008zM398.69 83.47400000000005H350.4l114.1 199.13H598.36L398.69 83.47500000000002z"  horiz-adv-x="1024" />

    
    <glyph glyph-name="qian" unicode="&#58924;" d="M513 832.2c-246.5 0-446.3-199.8-446.3-446.3S266.5-60.4 513-60.4s446.3 199.8 446.3 446.3S759.5 832.2 513 832.2z m163.4-297.4L596.6 455h34.9c19.1 0 34.6-15.5 34.6-34.6s-15.5-34.6-34.6-34.6h-83.9v-44.2h83.9c19.1 0 34.6-15.5 34.6-34.6s-15.5-34.6-34.6-34.6h-83.9v-96c0-19.1-15.5-34.6-34.6-34.6s-34.6 15.5-34.6 34.6v96h-83.9c-19.1 0-34.6 15.5-34.6 34.6s15.5 34.6 34.6 34.6h83.9v44.2h-83.9c-19.1 0-34.6 15.5-34.6 34.6s15.5 34.6 34.6 34.6h34.9l-79.8 79.8c-13.5 13.5-13.5 35.4 0 49 13.5 13.5 35.4 13.5 49 0L513 469.3l114.4 114.4c13.5 13.5 35.4 13.5 49 0 13.5-13.5 13.5-35.4 0-48.9z"  horiz-adv-x="1024" />

    
    <glyph glyph-name="rili" unicode="&#58919;" d="M907.343 779.706H790.799V861.112C790.799 880.373 775.172 896 755.91 896c-19.261 0-34.888-15.627-34.888-34.888v-81.406H302.364V861.112C302.364 880.373 286.737 896 267.476 896s-34.888-15.627-34.888-34.888v-81.406H116.544C52.31 779.706 0.25 727.624 0.25 663.412v-180.71c-0.068-0.817-0.25-1.613-0.25-2.453 0-0.863 0.182-1.658 0.25-2.499v-488.843c0-64.234 52.06-116.294 116.294-116.294h790.799c64.234 0 116.294 52.06 116.294 116.294V663.412c0 64.212-52.06 116.294-116.294 116.294z m46.517-767.54c0-38.545-31.231-69.776-69.776-69.776H139.803c-38.545 0-69.776 31.231-69.776 69.776V445.361H953.86v-433.195z m0 502.971H70.026V640.153c0 38.522 31.231 69.776 69.776 69.776h92.785v-81.406c0-19.284 15.627-34.888 34.888-34.888s34.888 15.604 34.888 34.888V709.93h418.658v-81.406c0-19.284 15.627-34.888 34.888-34.888 19.262 0 34.889 15.604 34.889 34.888V709.93h93.285c38.545 0 69.776-31.254 69.776-69.776v-125.017zM454.523 14.143h116.294c19.261 0 34.888 15.604 34.888 34.888s-15.627 34.889-34.888 34.889H454.523c-19.261 0-34.888-15.604-34.888-34.889s15.627-34.888 34.888-34.888zM175.417 14.143h116.294c19.261 0 34.888 15.604 34.888 34.888s-15.627 34.889-34.888 34.889H175.417c-19.261 0-34.888-15.604-34.888-34.889s15.627-34.888 34.888-34.888zM733.629 14.143h116.294c19.261 0 34.888 15.604 34.888 34.888s-15.627 34.889-34.888 34.889H733.629c-19.262 0-34.889-15.604-34.889-34.889s15.627-34.888 34.889-34.888zM454.523 153.695h116.294c19.261 0 34.888 15.604 34.888 34.888s-15.627 34.888-34.888 34.888H454.523c-19.261 0-34.888-15.604-34.888-34.888s15.627-34.888 34.888-34.888zM175.417 153.695h116.294c19.261 0 34.888 15.604 34.888 34.888s-15.627 34.888-34.888 34.888H175.417c-19.261 0-34.888-15.604-34.888-34.888s15.627-34.888 34.888-34.888zM733.629 153.695h116.294c19.261 0 34.888 15.604 34.888 34.888s-15.627 34.888-34.888 34.888H733.629c-19.262 0-34.889-15.604-34.889-34.888s15.627-34.888 34.889-34.888zM454.523 293.248h116.294c19.261 0 34.888 15.604 34.888 34.888s-15.627 34.888-34.888 34.888H454.523c-19.261 0-34.888-15.604-34.888-34.888s15.627-34.888 34.888-34.888zM175.417 293.248h116.294c19.261 0 34.888 15.604 34.888 34.888s-15.627 34.888-34.888 34.888H175.417c-19.261 0-34.888-15.604-34.888-34.888s15.627-34.888 34.888-34.888zM733.629 293.248h116.294c19.261 0 34.888 15.604 34.888 34.888s-15.627 34.888-34.888 34.888H733.629c-19.262 0-34.889-15.604-34.889-34.888s15.627-34.888 34.889-34.888z"  horiz-adv-x="1024" />

    
    <glyph glyph-name="shaixuan" unicode="&#58906;" d="M582.4 366.08c0 18.8416 6.4512 37.1712 18.2272 51.9168l182.3744 227.9936a19.2 19.2 0 0 1 4.1984 11.9808V691.2A19.2 19.2 0 0 1 768 710.4H256A19.2 19.2 0 0 1 236.8 691.2v-33.28c0-4.3008 1.4848-8.5504 4.1984-11.9296L423.424 417.9968c11.776-14.7456 18.2272-33.0752 18.2272-51.968v-257.5872c0-7.2704 4.096-13.9264 10.5984-17.152l130.2016-65.1264V366.08zM256 774.3488h512c45.9264 0 83.2-37.2736 83.2-83.2v-33.28c0-18.8416-6.4512-37.1712-18.2272-51.9168l-182.3744-227.9936a19.2 19.2 0 0 1-4.1984-11.9808v-350.208a57.6 57.6 0 0 0-83.3536-51.5072l-139.4688 69.7344a83.2 83.2 0 0 0-45.9776 74.3936v257.5872a19.2 19.2 0 0 1-4.1984 11.9808L190.976 606.0032a83.2 83.2 0 0 0-18.2272 51.968V691.2c0 45.9264 37.2736 83.2 83.2 83.2z"  horiz-adv-x="1024" />

    
    <glyph glyph-name="paixu" unicode="&#58932;" d="M393.841 896c-19.262 0-34.889-15.604-34.889-34.889v-869.407L138.92 211.735c-13.628 13.629-35.707 13.606-49.335 0-13.605-13.628-13.628-35.706 0-49.357l279.612-279.589c0.022-0.022 0.045-0.022 0.068-0.045a34.805 34.805 0 0 1 11.266-7.496c0.272-0.091 0.522-0.137 0.795-0.228 3.816-1.476 7.927-2.362 12.266-2.407 0.182 0 0.364 0.022 0.545 0.022 4.293 0.022 8.381 0.909 12.175 2.362 0.295 0.113 0.59 0.159 0.909 0.272a35.124 35.124 0 0 1 11.016 7.314c0.091 0.091 0.205 0.113 0.295 0.204s0.114 0.204 0.182 0.296a34.762 34.762 0 0 1 7.359 11.062c0.091 0.25 0.136 0.499 0.227 0.749 1.5 3.885 2.408 8.063 2.408 12.471 0 0.045 0.023 0.091 0.023 0.136V861.111C428.73 880.396 413.103 896 393.841 896zM932.258 606.099L652.646 885.71c-0.023 0.045-0.046 0.045-0.068 0.045a35.188 35.188 0 0 1-11.267 7.496c-0.272 0.091-0.522 0.136-0.795 0.227A34.373 34.373 0 0 1 628.25 895.886h-0.545c-4.293-0.045-8.382-0.908-12.175-2.362-0.295-0.137-0.591-0.182-0.908-0.318-4.135-1.681-7.859-4.179-11.017-7.269-0.091-0.091-0.205-0.136-0.296-0.227s-0.113-0.182-0.182-0.272c-3.111-3.18-5.633-6.905-7.359-11.084-0.091-0.227-0.136-0.5-0.227-0.727-1.499-3.907-2.408-8.086-2.408-12.493 0-0.045-0.022-0.091-0.022-0.136v-953.631c0-19.262 15.627-34.89 34.889-34.89s34.89 15.628 34.89 34.89V776.773l220.031-220.01c13.629-13.628 35.707-13.628 49.336 0 13.606 13.63 13.629 35.708 0.001 49.336z"  horiz-adv-x="1024" />

    
    <glyph glyph-name="shanchu" unicode="&#59086;" d="M512 832c60.5 0 119.2-11.8 174.4-35.2 53.3-22.6 101.3-54.9 142.4-96 41.2-41.2 73.5-89.1 96-142.4C948.2 503.2 960 444.5 960 384s-11.8-119.2-35.2-174.4c-22.6-53.3-54.9-101.3-96-142.4-41.2-41.2-89.1-73.5-142.4-96C631.2-52.2 572.5-64 512-64s-119.2 11.8-174.4 35.2c-53.3 22.6-101.3 54.9-142.4 96-41.2 41.2-73.5 89.1-96 142.4C75.8 264.8 64 323.5 64 384s11.8 119.2 35.2 174.4c22.6 53.3 54.9 101.3 96 142.4s89.1 73.5 142.4 96C392.8 820.2 451.5 832 512 832m0 64C229.2 896 0 666.8 0 384s229.2-512 512-512 512 229.2 512 512S794.8 896 512 896zM764 416H260c-17.6 0-32-14.4-32-32s14.4-32 32-32h504c17.6 0 32 14.4 32 32s-14.4 32-32 32z"  horiz-adv-x="1024" />

    
    <glyph glyph-name="paixu1" unicode="&#58989;" d="M640 793.6H25.6c-14.336 0-25.6-11.264-25.6-25.6s11.264-25.6 25.6-25.6h614.4c14.336 0 25.6 11.264 25.6 25.6s-11.264 25.6-25.6 25.6zM640 409.6H25.6c-14.336 0-25.6-11.264-25.6-25.6s11.264-25.6 25.6-25.6h614.4c14.336 0 25.6 11.264 25.6 25.6s-11.264 25.6-25.6 25.6zM640 25.6H25.6c-14.336 0-25.6-11.264-25.6-25.6s11.264-25.6 25.6-25.6h614.4c14.336 0 25.6 11.264 25.6 25.6s-11.264 25.6-25.6 25.6zM855.04 793.6c-14.336 0-25.6-11.264-25.6-25.6v-768c0-14.336 11.264-25.6 25.6-25.6s25.6 11.264 25.6 25.6V768c0 14.336-11.264 25.6-25.6 25.6zM1017.344 162.304c-10.24 10.24-26.112 10.24-36.352 0l-144.896-144.896c-10.24-10.24-10.24-26.112 0-36.352s26.112-10.24 36.352 0l144.896 144.896c9.728 10.24 9.728 26.112 0 36.352z"  horiz-adv-x="1024" />

    
    <glyph glyph-name="qiehuanshexiangtou" unicode="&#58931;" d="M808.992 326.336a24 24 0 1 0-21.184 43.04l89.6 44.16a24 24 0 0 0 34.592-21.536c0-225.344-182.656-408-408-408a408.16 408.16 0 0 0-391.296 292.064 24 24 0 0 0 46.048 13.6A360.16 360.16 0 0 1 504 32c185.44 0 338.112 140.16 357.856 320.352l-52.864-26.016z m-593.6 134.976a24 24 0 0 0 19.744-43.776l-105.28-47.424A24 24 0 0 0 96 392C96 617.344 278.656 800 504 800c185.92 0 346.976-125.44 394.24-302.56a24 24 0 0 0-46.4-12.384A360.16 360.16 0 0 1 504 752C318.016 752 164.992 610.976 145.984 430.016l69.44 31.296z"  horiz-adv-x="1024" />

    
    <glyph glyph-name="bianji" unicode="&#58937;" d="M946.176 0a34.304 34.304 0 0 0 0-68.608H77.824a34.304 34.304 0 0 0 0 68.608h868.352z m0 622.08L401.92 77.824 189.44 56.32l21.504 211.968 473.088 473.088 71.168 71.168c31.744 31.744 87.552 31.744 119.296 0l71.168-71.168c15.872-15.872 24.576-37.376 24.576-59.904 0.512-22.016-8.192-43.52-24.064-59.392zM266.24 133.12l103.936 10.752 431.616 431.616-93.696 93.696L276.48 237.568 266.24 133.12zM815.104 768.512c-4.096 0-8.192-1.536-11.264-4.608l-46.592-46.592 93.696-93.696 46.592 46.592c6.144 6.144 6.144 16.384 0 22.528l-71.168 71.168c-3.072 3.072-7.168 4.608-11.264 4.608z"  horiz-adv-x="1024" />

    
    <glyph glyph-name="xuanzhong" unicode="&#59171;" d="M940.8 678.4c-12.8 12.8-32 12.8-44.8 0L377.6 156.8 128 406.4c-12.8 12.8-32 12.8-44.8 0-12.8-12.8-12.8-32 0-44.8l272-272c12.8-12.8 32-12.8 44.8 0l544 544c9.6 12.8 9.6 32-3.2 44.8z"  horiz-adv-x="1024" />

    
    <glyph glyph-name="huabanfuben" unicode="&#58942;" d="M124.928 633.6a47.104 47.104 0 0 1-34.048-14.592 51.2 51.2 0 0 1 0-70.656l387.072-401.92a46.848 46.848 0 0 1 68.096 0 51.2 51.2 0 0 1 0 70.656l-387.072 401.92a47.104 47.104 0 0 1-34.048 14.592zM899.072 633.6a47.104 47.104 0 0 1-34.048-14.592l-387.072-401.92a51.2 51.2 0 0 1 0-70.656 46.848 46.848 0 0 1 68.096 0l387.072 401.92a51.2 51.2 0 0 1 0 70.656 47.104 47.104 0 0 1-34.048 14.592z"  horiz-adv-x="1024" />

    
    <glyph glyph-name="qiehuan" unicode="&#58951;" d="M886.2 291.2H137.8c-22.1 0-40-17.9-40-40 0-8.4 2.6-16.2 7-22.6 1.9-4.5 4.8-8.7 8.4-12.4L289.5 40c7.8-7.8 18-11.7 28.3-11.7s20.5 3.9 28.3 11.7c15.6 15.6 15.6 40.9 0 56.6L231.3 211.2h654.8c22.1 0 40 17.9 40 40s-17.8 40-39.9 40zM137.8 476.8h748.4c22.1 0 40 17.9 40 40 0 8.4-2.6 16.2-7 22.6-1.4 3.3-3.4 6.5-5.8 9.5L769.2 725.1c-14 17.1-39.2 19.6-56.3 5.6-17.1-14-19.6-39.2-5.6-56.3l96.3-117.6H137.8c-22.1 0-40-17.9-40-40s17.9-40 40-40z"  horiz-adv-x="1024" />

    
    <glyph glyph-name="paixu2" unicode="&#59510;" d="M512 844.8L153.6 435.2h716.8l-358.4 409.6zM512-76.8l358.4 409.6H153.6l358.4-409.6z"  horiz-adv-x="1024" />

    
    <glyph glyph-name="tishi" unicode="&#59099;" d="M512 896c281.6 0 512-230.4 512-512s-230.4-512-512-512-512 230.4-512 512 230.4 512 512 512z m0-204.8c-25.6 0-51.2-25.6-51.2-51.2v-352c0-25.6 19.2-51.2 51.2-51.2 25.6 0 51.2 19.2 51.2 51.2V640c0 25.6-25.6 51.2-51.2 51.2z m0-614.4c25.6 0 51.2 19.2 51.2 51.2s-25.6 51.2-51.2 51.2-51.2-19.2-51.2-51.2 25.6-51.2 51.2-51.2z"  horiz-adv-x="1024" />

    
    <glyph glyph-name="shanchu1" unicode="&#58902;" d="M517.59 874.391c-100.299 0-181.703-79.514-185.167-179.34H98.603c-25.979 0-47.235-21.099-47.235-47.236 0-25.98 21.099-47.237 47.236-47.237h52.117v-528.416c0-99.196 67.233-180.285 150.37-180.285h423.55c82.98 0 150.37 80.616 150.37 180.285V600.263h47.236c25.98 0 47.236 21.1 47.236 47.237 0 25.98-21.099 47.236-47.236 47.236H702.441C699.449 794.876 617.888 874.39 517.59 874.39z m-96.677-179.34c3.464 51.172 45.19 90.85 96.834 90.85s93.37-39.835 96.362-90.85H420.913z m-119.98-714.842c-29.444 0-61.88 37.789-61.88 91.953V600.263h547.311V71.69c0-54.007-32.436-91.954-61.88-91.954H300.933v0.473z m0 0M364.387 93.733c21.57 0 39.363 21.571 39.363 48.653V419.978c0 27.082-17.635 48.654-39.363 48.654-21.572 0-39.364-21.572-39.364-48.654v-277.592c0-26.924 17.32-48.653 39.364-48.653z m142.496 0c21.571 0 39.363 21.571 39.363 48.653V419.978c0 27.082-17.635 48.654-39.363 48.654-21.571 0-39.364-21.572-39.364-48.654v-277.592c0-26.924 17.793-48.653 39.364-48.653z m149.896 0c21.571 0 39.364 21.571 39.364 48.653V419.978c0 27.082-17.635 48.654-39.364 48.654-21.571 0-39.363-21.572-39.363-48.654v-277.592c0-26.924 17.162-48.653 39.363-48.653z m0 0"  horiz-adv-x="1024" />

    
    <glyph glyph-name="feiji" unicode="&#58901;" d="M510.139764 385.851702m-510.131231 0a510.131231 510.131231 0 1 1 1020.262462 0 510.131231 510.131231 0 1 1-1020.262462 0ZM281.9793 320.606923c16.639723 12.356061 52.22313-0.204797 52.22313-0.204796l26.111565-8.82332a22.322828 22.322828 0 0 1 26.060365 8.618523l70.381761 76.269662a17.066382 17.066382 0 0 1-2.986617 25.701972l-146.463692 99.053282a22.305762 22.305762 0 0 0-0.136531 34.900752l8.652655 8.703855c43.655806 25.667839 104.343861-0.42666 104.343861-0.42666l113.269579-61.55844c11.553941-6.314561 26.043299 8.618523 26.043299 8.618523l137.04305 119.652405c20.155397 15.18908 46.693622 8.959851 60.073665-4.300728 13.380044-13.243513 15.871735-33.535441 2.679422-55.158547l-121.171314-139.125148s-13.82377-15.922935-8.58439-26.145698l61.319511-113.696238s26.111565-60.824586 0.42666-104.719321l-8.652656-8.703855c-9.676639-8.328395-23.910001-8.516125-33.791437-0.42666l-94.616023 144.535191a17.066382 17.066382 0 0 1-25.428909 3.58394l-77.481376-66.780753c-7.492142-6.434026-14.506425-17.885569-12.287795-27.511008l8.806253-26.23103s12.526725-35.634606 0.204797-52.342594a23.654006 23.654006 0 0 0-38.570024 7.560407c-12.97045 31.026683-27.152614 54.697755-42.580623 70.99615-15.957067 16.895718-41.761437 33.091715-77.378977 48.58799a24.268396 24.268396 0 0 0-7.509209 39.372144z"  horiz-adv-x="1024" />

    
    <glyph glyph-name="6" unicode="&#58907;" d="M704.554667 768h86.784C824.917333 768 853.333333 737.834667 853.333333 699.562667v-631.125334c0-38.357333-28.373333-68.437333-62.122666-68.437333H232.789333C199.082667 0 170.666667 30.165333000000032 170.666667 68.43733299999997V699.562667C170.666667 737.877333 199.082667 768 232.661333 768h87.04a42.666667 42.666667 0 1 1 0 85.333333h-87.04C150.741333 853.333333 85.333333 783.914667 85.333333 699.562667v-631.125334C85.333333-15.786666999999966 150.784-85.33333300000004 232.789333-85.33333300000004h558.421334C873.258667-85.33333300000004 938.666667-15.957332999999949 938.666667 68.43733299999997V699.562667C938.666667 783.786667 873.258667 853.333333 791.338667 853.333333h-86.784a42.666667 42.666667 0 1 1 0-85.333333zM469.333333 768h85.333334a42.666667 42.666667 0 0 1 0 85.333333h-85.333334a42.666667 42.666667 0 1 1 0-85.333333zM341.333333 554.666667h341.333334a42.666667 42.666667 0 0 1 0 85.333333H341.333333a42.666667 42.666667 0 1 1 0-85.333333zM341.333333 341.33333300000004h341.333334a42.666667 42.666667 0 0 1 0 85.333334H341.333333a42.666667 42.666667 0 0 1 0-85.333334zM341.333333 128h341.333334a42.666667 42.666667 0 0 1 0 85.333333H341.333333a42.666667 42.666667 0 0 1 0-85.333333z"  horiz-adv-x="1024" />

    
    <glyph glyph-name="peizhitubiaosvg-" unicode="&#58966;" d="M888.533333 789.333333H135.466667a74.666667 74.666667 0 0 1-74.666667-74.666666v-593.493334a74.666667 74.666667 0 0 1 74.666667-74.666666H360.533333a95.36 95.36 0 0 1 6.4-7.253334l70.613334-70.613333a111.786667 111.786667 0 0 1 158.293333 0l70.613333 70.613333a95.146667 95.146667 0 0 1 6.4 7.253334h215.68a74.666667 74.666667 0 0 1 74.666667 74.666666V714.666667a74.666667 74.666667 0 0 1-74.666667 74.666666z m10.666667-668.16a10.666667 10.666667 0 0 0-10.666667-10.666666H637.653333l-87.04-96.426667a49.066667 49.066667 0 0 0-67.626666 0l-87.253334 96.426667H135.466667a10.666667 10.666667 0 0 0-10.666667 10.666666V714.666667a10.666667 10.666667 0 0 0 10.666667 10.666666h753.066666a10.666667 10.666667 0 0 0 10.666667-10.666666zM266.666667 485.76h234.666666a32 32 0 0 1 0 64h-234.666666a32 32 0 0 1 0-64zM757.333333 357.76h-490.666666a32 32 0 0 1 0-64h490.666666a32 32 0 0 1 0 64z"  horiz-adv-x="1024" />

    
    <glyph glyph-name="anquanshezhi" unicode="&#58889;" d="M163.620571 585.142857a109.714286 109.714286 0 0 1-22.235428 136.923429L404.260571 875.227429a109.714286 109.714286 0 0 1 215.478858 0l262.875428-153.161143A109.714286 109.714286 0 0 1 987.428571 535.04v-302.08a109.714286 109.714286 0 0 1-104.886857-187.026286l-262.802285-153.088a109.714286 109.714286 0 0 1-215.478858 0l-262.802285 153.088A109.714286 109.714286 0 0 1 36.571429 232.96v302.08a109.714286 109.714286 0 0 1 127.049142 50.102857zM109.714286 461.824v-155.648a182.710857 182.710857 0 0 0 132.827428-234.496l133.266286-77.604571a182.710857 182.710857 0 0 0 272.384 0l133.266286 77.531428A182.710857 182.710857 0 0 0 914.285714 306.249143V461.824a182.710857 182.710857 0 0 0-132.827428 234.569143L648.192 773.851429a182.710857 182.710857 0 0 0-272.384 0l-133.266286-77.531429A182.710857 182.710857 0 0 0 109.714286 461.824zM512 201.142857a182.857143 182.857143 0 1 0 0 365.714286 182.857143 182.857143 0 0 0 0-365.714286z m0 73.142857a109.714286 109.714286 0 1 1 0 219.428572 109.714286 109.714286 0 0 1 0-219.428572z"  horiz-adv-x="1024" />

    
    <glyph glyph-name="dizhiguanli" unicode="&#58890;" d="M292.571429 230.4L0 347.428571 1024 749.714286l-292.571429-694.857143-225.133714 90.038857a36.717714 36.717714 0 0 0-4.973714-6.217143l-146.285714-146.285714A36.571429 36.571429 0 0 0 292.571429 18.285714V230.4z m73.142857-29.257143v-94.573714l67.510857 67.584L365.714286 201.142857z m55.296 56.685714l270.848-108.397714 179.492571 426.276572-450.340571-317.878858zM340.114286 290.157714l358.619428 253.147429-500.150857-196.461714 141.531429-56.685715z"  horiz-adv-x="1024" />

    
    <glyph glyph-name="kucunguanli" unicode="&#58892;" d="M858.51769-50.743669a219.407571 219.407571 0 1 0 51.707051 51.707051l66.480494-66.407358a36.567928 36.567928 0 0 0-51.780186-51.780187l-66.407359 66.480494zM292.592429 786.296215V822.864143a73.135857 73.135857 0 0 0 73.135857 73.135857h146.271714a73.135857 73.135857 0 0 0 73.135857-73.135857v-36.567928h73.135857A182.839642 182.839642 0 0 0 841.111356 603.456572v-219.407571a36.567928 36.567928 0 1 0-73.135857 0V603.456572A109.703785 109.703785 0 0 1 658.271714 713.160358H219.456572A109.703785 109.703785 0 0 1 109.752787 603.456572v-438.815142A109.703785 109.703785 0 0 1 219.456572 54.937645h255.9755a36.567928 36.567928 0 1 0 0-73.135857H219.456572A182.839642 182.839642 0 0 0 36.61693 164.64143V603.456572A182.839642 182.839642 0 0 0 219.456572 786.296215h73.135857z m73.135857 0h146.271714V822.864143H365.728286v-36.567928zM256.024501 603.456572h365.679284a36.567928 36.567928 0 0 0 0-73.135857h-365.679284a36.567928 36.567928 0 0 0 0 73.135857z m0-146.271714h365.679284a36.567928 36.567928 0 0 0 0-73.135857h-365.679284a36.567928 36.567928 0 0 0 0 73.135857z m0-146.271714h219.407571a36.567928 36.567928 0 0 0 0-73.135857h-219.407571a36.567928 36.567928 0 0 0 0 73.135857z m475.38307-329.111356a146.271714 146.271714 0 1 1 0 292.543428 146.271714 146.271714 0 0 1 0-292.543428z"  horiz-adv-x="1024" />

    
    <glyph glyph-name="shangpinguanli" unicode="&#58893;" d="M798.500571 617.106286A73.069714 73.069714 0 0 0 841.142857 749.714286a73.142857 73.142857 0 0 0 30.573714-139.629715 365.860571 365.860571 0 0 0-719.433142 0 73.142857 73.142857 0 1 0 73.142857 7.021715 292.644571 292.644571 0 0 1 573.074285 0zM694.857143 822.857143a36.571429 36.571429 0 0 0 0 73.142857h219.428571A109.714286 109.714286 0 0 0 1024 786.285714v-804.571428a109.714286 109.714286 0 0 0-109.714286-109.714286h-804.571428A109.714286 109.714286 0 0 0 0-18.285714v804.571428A109.714286 109.714286 0 0 0 109.714286 896h219.428571a36.571429 36.571429 0 0 0 0-73.142857h-219.428571a36.571429 36.571429 0 0 1-36.571429-36.571429v-804.571428a36.571429 36.571429 0 0 1 36.571429-36.571429h804.571428a36.571429 36.571429 0 0 1 36.571429 36.571429v804.571428a36.571429 36.571429 0 0 1-36.571429 36.571429h-219.428571z"  horiz-adv-x="1024" />

    
    <glyph glyph-name="qiyeziliao" unicode="&#58894;" d="M292.571429-18.285713999999984H168.228571a21.942857 21.942857 0 0 0-21.942857 21.942857v51.2H19.748571c-10.971429 0-19.748571 9.801143-19.748571 21.942857V691.2c0 12.141714 8.777143 21.942857 19.748571 21.942857H146.285714v51.2a21.942857 21.942857 0 0 0 21.942857 21.942857H292.571429V837.485714a21.942857 21.942857 0 0 0 21.942857 21.942857h687.542857a21.942857 21.942857 0 0 0 21.942857-21.942857v-906.971428a21.942857 21.942857 0 0 0-21.942857-21.942857H314.514286a21.942857 21.942857 0 0 0-21.942857 21.942857v51.2z m0 73.142857v658.285714H219.428571v-658.285714h73.142858z m-146.285715 585.142857H73.142857v-512h73.142857v512z m219.428572 146.285714v-804.571428h585.142857v804.571428H365.714286z m95.085714-73.142857h175.542857a21.942857 21.942857 0 0 0 21.942857-21.942857v-175.542857a21.942857 21.942857 0 0 0-21.942857-21.942857H460.8a21.942857 21.942857 0 0 0-21.942857 21.942857V691.2a21.942857 21.942857 0 0 0 21.942857 21.942857z m51.2-146.285714h73.142857v73.142857H512v-73.142857z m-36.571429-146.285714h365.714286a36.571429 36.571429 0 1 0 0-73.142858h-365.714286a36.571429 36.571429 0 0 0 0 73.142858z m0-146.285715h365.714286a36.571429 36.571429 0 1 0 0-73.142857h-365.714286a36.571429 36.571429 0 0 0 0 73.142857z m0-146.285714h365.714286a36.571429 36.571429 0 1 0 0-73.142857h-365.714286a36.571429 36.571429 0 1 0 0 73.142857z"  horiz-adv-x="1024" />

    
    <glyph glyph-name="wodeshoucang" unicode="&#58895;" d="M512.877714 54.857143l-228.205714-119.954286a73.142857 73.142857 0 0 0-106.057143 77.165714l43.52 254.025143-184.539428 179.931429a73.142857 73.142857 0 0 0 40.521142 124.708571l255.049143 37.083429L447.268571 838.948571a73.142857 73.142857 0 0 0 131.145143 0l114.102857-231.131428 255.049143-37.083429a73.142857 73.142857 0 0 0 40.521143-124.781714l-184.539428-179.931429 43.52-253.952a73.142857 73.142857 0 0 0-106.057143-77.165714L512.731429 54.857143z m212.114286 236.763428l212.041143 206.701715-293.083429 42.642285-131.072 265.508572-131.145143-265.508572-293.083428-42.642285 212.114286-206.701715-50.102858-291.913142 262.217143 137.801142 262.144-137.801142-50.102857 291.84z"  horiz-adv-x="1024" />

    
    <glyph glyph-name="zhanghuxinxi" unicode="&#58896;" d="M803.474286 254.610286a299.812571 299.812571 0 0 0 189.659428-253.513143 36.571429 36.571429 0 0 0-72.850285-6.436572C909.897143 111.177143 813.494857 201.142857 697.782857 201.142857c-115.785143 0-212.260571-89.965714-222.500571-206.555428a36.571429 36.571429 0 1 0-72.850286 6.436571 299.666286 299.666286 0 0 0 197.485714 256.512A156.818286 156.818286 0 0 0 548.571429 373.76C548.571429 460.141714 617.764571 530.285714 703.268571 530.285714c85.577143 0 154.770286-70.144 154.770286-156.452571 0-47.689143-21.211429-90.477714-54.564571-119.222857zM292.571429-18.285714a36.571429 36.571429 0 1 0 0-73.142857h-58.514286c-109.787429 0-197.485714 95.670857-197.485714 212.114285V647.314286C36.571429 763.757714 124.269714 859.428571 234.057143 859.428571h482.742857c109.787429 0 197.485714-95.670857 197.485714-212.114285a36.571429 36.571429 0 1 0-73.142857 0c0 77.458286-56.393143 138.971429-124.342857 138.971428H234.057143c-67.949714 0-124.342857-61.513143-124.342857-138.971428v-526.628572c0-77.458286 56.393143-138.971429 124.342857-138.971428H292.571429zM182.857143 603.428571h292.571428a36.571429 36.571429 0 0 0 0-73.142857h-292.571428a36.571429 36.571429 0 0 0 0 73.142857z m0-219.428571h146.285714a36.571429 36.571429 0 0 0 0-73.142857h-146.285714a36.571429 36.571429 0 0 0 0 73.142857z m520.411428-93.403429c44.982857 0 81.627429 37.156571 81.627429 83.236572 0 46.08-36.644571 83.309714-81.627429 83.309714C658.358857 457.142857 621.714286 419.986286 621.714286 373.833143c0-46.08 36.644571-83.236571 81.554285-83.236572z"  horiz-adv-x="1024" />

    
    <glyph glyph-name="yewuchaxun" unicode="&#58897;" d="M329.142857 237.71428600000002H365.714286a146.285714 146.285714 0 1 1 292.571428 0h256V786.285714h-585.142857V237.71428600000002z m-24.137143-73.142857H73.142857v-219.428572h877.714286v219.428572H718.994286a219.501714 219.501714 0 0 0-413.988572 0zM256 640h-146.285714V237.71428600000002h146.285714V640z m0 73.142857v146.285714h731.428571V237.71428600000002h36.571429v-365.714286H0V237.71428600000002h36.571429V713.142857h219.428571zM438.857143 676.571429h365.714286v-73.142858H438.857143V676.571429z m0-219.428572h365.714286v-73.142857H438.857143V457.142857z"  horiz-adv-x="1024" />

    
    <glyph glyph-name="zijinchaxun" unicode="&#58899;" d="M475.428571 274.285714v73.142857H365.714286a36.571429 36.571429 0 0 0 0 73.142858h99.474285L337.188571 580.608a36.571429 36.571429 0 1 0 57.051429 45.641143L512 479.085714l117.76 147.163429a36.571429 36.571429 0 1 0 57.051429-45.641143L558.811429 420.571429H658.285714a36.571429 36.571429 0 0 0 0-73.142858H548.571429v-73.142857H658.285714a36.571429 36.571429 0 0 0 0-73.142857H548.571429v-73.142857a36.571429 36.571429 0 1 0-73.142858 0v73.142857H365.714286a36.571429 36.571429 0 0 0 0 73.142857h109.714285zM585.142857 853.796571l297.106286-171.593142a146.285714 146.285714 0 0 0 73.142857-126.683429v-343.04a146.285714 146.285714 0 0 0-73.142857-126.683429L585.142857-85.796571a146.285714 146.285714 0 0 0-146.285714 0l-297.106286 171.593142a146.285714 146.285714 0 0 0-73.142857 126.683429v343.04a146.285714 146.285714 0 0 0 73.142857 126.683429L438.857143 853.796571a146.285714 146.285714 0 0 0 146.285714 0z m-36.571428-63.341714a73.142857 73.142857 0 0 1-73.142858 0L178.322286 618.788571a73.142857 73.142857 0 0 1-36.571429-63.341714v-343.04a73.142857 73.142857 0 0 1 36.571429-63.341714L475.428571-22.454857a73.142857 73.142857 0 0 1 73.142858 0l297.106285 171.593143a73.142857 73.142857 0 0 1 36.571429 63.341714v343.04a73.142857 73.142857 0 0 1-36.571429 63.341714L548.571429 790.454857z"  horiz-adv-x="1024" />

    
    <glyph glyph-name="jipiao-copy" unicode="&#59612;" d="M393.96786466-106.43424465999999c-0.491465 0-0.983954 0-1.504087 0.026621-10.552162 0.573376-19.874638 7.0044-24.1125 16.652471L292.65134066 81.94836834 120.46864066 174.69497234000005c-8.55661 4.60646-14.106068 13.327915-14.626202 23.002608-0.546755 9.675716 3.992129 18.941879 11.974339 24.474955l58.724943 40.635961c5.19417 3.624554 11.344649 5.260723 17.742909 4.933079l136.913945-8.667189L444.62663866 383.95460734000005 117.76251166 611.2295053400001c-7.846033 5.477786-12.357272 14.581151-11.946694 24.119666 0.409554 9.53954 5.71328 18.206729 14.024158 22.975987l89.098501 51.020206c6.970611 3.952197 15.282512 4.742637 22.855168 2.262786l393.352168-131.530356L798.00939666 754.61542934c20.176684 20.113203 48.253668 31.124066 79.17398 31.124067 33.053066 0 64.957333-12.918361 87.566769-35.457149 45.573136-45.379621 47.678244-122.999344 4.483593-166.089558L795.87766666 409.13809134l117.173437-390.883581c2.215688-7.331019 1.286-15.235414-2.541283-21.885549l-51.151263-88.794407c-4.838882-8.394836-13.724159-13.709824-23.429568-14.008799-9.459677-0.054266-18.918329 4.496904-24.222056 12.564097l-216.551746 328.170605-129.122178-118.474795-2.815685-123.353609a27.951045 27.951045 0 0 0-3.717727-13.273649l-41.254388-71.62385c-5.003728-8.694834-14.298559-14.008799-24.277345-14.008799zM600.43126866 304.99871434c1.148799 0 2.26893-0.081911 3.41773-0.218087a28.018622 28.018622 0 0 0 19.984193-12.346009l209.635401-317.732094 22.49988 39.055081-118.487081 395.244309c-2.92524 9.757627-0.273377 20.331291 6.889724 27.581423l185.138945 186.937911c21.460636 21.395108 19.273617 63.748124-4.347418 87.296463-22.636057 22.566433-67.252884 24.583487-87.429567 4.469259L652.73133166 528.48523634a27.966404 27.966404 0 0 0-28.84285-6.868223L225.91654266 654.70060434 186.00037366 631.83314934 502.72189266 411.61589334a27.856848 27.856848 0 0 0 11.782872-19.758939 27.668453 27.668453 0 0 0-7.052522-21.857904L363.64959666 211.65211334000003c-5.741949-6.295871-13.970915-9.566161-22.527525-9.129985l-140.659318 8.884253-13.28696-9.184252 140.549762-75.713248a27.790295 27.790295 0 0 0 12.303006-13.326891l57.274098-129.895212 10.088342 17.552466 2.92524 128.122867a27.909066 27.909066 0 0 0 9.049099 19.896139l162.119954 148.754156a28.038076 28.038076 0 0 0 18.945974 7.386308z"  horiz-adv-x="1024" />

    
    <glyph glyph-name="jipiao-copy-copy" unicode="&#59613;" d="M351.301198-85.10091133000003c-0.491465 0-0.983954 0-1.504087 0.026621-10.552162 0.573376-19.874638 7.0044-24.1125 16.652471L249.984674 103.28170166999996 77.801974 196.02830567c-8.55661 4.60646-14.106068 13.327915-14.626202 23.002608-0.546755 9.675716 3.992129 18.941879 11.974339 24.474955l58.724943 40.635961c5.19417 3.624554 11.344649 5.260723 17.742909 4.933079l136.913945-8.667189L401.959972 405.28794067 75.095845 632.56283867c-7.846033 5.477786-12.357272 14.581151-11.946694 24.119666 0.409554 9.53954 5.71328 18.206729 14.024158 22.975987l89.098501 51.020206c6.970611 3.952197 15.282512 4.742637 22.855168 2.262786l393.352168-131.530356L755.34273 775.94876267c20.176684 20.113203 48.253668 31.124066 79.17398 31.124067 33.053066 0 64.957333-12.918361 87.566769-35.457149 45.573136-45.379621 47.678244-122.999344 4.483593-166.089558L753.211 430.47142467l117.173437-390.883581c2.215688-7.331019 1.286-15.235414-2.541283-21.885549l-51.151263-88.794407c-4.838882-8.394836-13.724159-13.709824-23.429568-14.008799-9.459677-0.054266-18.918329 4.496904-24.222056 12.564097l-216.551746 328.170605-129.122178-118.474795-2.815685-123.353609a27.951045 27.951045 0 0 0-3.717727-13.273649l-41.254388-71.62385c-5.003728-8.694834-14.298559-14.008799-24.277345-14.008799zM557.764602 326.33204766999995c1.148799 0 2.26893-0.081911 3.41773-0.218087a28.018622 28.018622 0 0 0 19.984193-12.346009l209.635401-317.732094 22.49988 39.055081-118.487081 395.244309c-2.92524 9.757627-0.273377 20.331291 6.889724 27.581423l185.138945 186.937911c21.460636 21.395108 19.273617 63.748124-4.347418 87.296463-22.636057 22.566433-67.252884 24.583487-87.429567 4.469259L610.064665 549.81856967a27.966404 27.966404 0 0 0-28.84285-6.868223L183.249876 676.03393767 143.333707 653.16648267 460.055226 432.94922667a27.856848 27.856848 0 0 0 11.782872-19.758939 27.668453 27.668453 0 0 0-7.052522-21.857904L320.98293 232.98544667c-5.741949-6.295871-13.970915-9.566161-22.527525-9.129985l-140.659318 8.884253-13.28696-9.184252 140.549762-75.713248a27.790295 27.790295 0 0 0 12.303006-13.326891l57.274098-129.895212 10.088342 17.552466 2.92524 128.122867a27.909066 27.909066 0 0 0 9.049099 19.896139l162.119954 148.754156a28.038076 28.038076 0 0 0 18.945974 7.386308z"  horiz-adv-x="1024" />

    
    <glyph glyph-name="delete-copy" unicode="&#59614;" d="M512 896a512 512 0 1 1 512-512 512 512 0 0 1-512 512z m203.52-640A55.68 55.68 0 1 0 640 180.48000000000002l-128 128-128-128A55.68 55.68 0 1 0 308.48 256l128 128-128 128A55.68 55.68 0 1 0 384 587.52l128-128 128 128A55.68 55.68 0 1 0 715.52 512l-128-128z"  horiz-adv-x="1024" />

    


  </font>
</defs>
</svg>
